<mxfile host="app.diagrams.net" modified="2021-10-15T11:45:47.844Z" agent="5.0 (Windows NT 10.0; Win64; x64) AppleWebKit/537.36 (KHTML, like Gecko) Chrome/94.0.4606.81 Safari/537.36" etag="rkBW34j4Xp7_R0Yko7on" version="15.5.2" type="github">
  <diagram name="Page-1" id="f1b7ffb7-ca1e-a977-7cf5-a751b3c06c05">
    <mxGraphModel dx="1185" dy="697" grid="1" gridSize="10" guides="1" tooltips="1" connect="1" arrows="1" fold="1" page="1" pageScale="1" pageWidth="826" pageHeight="1169" background="none" math="0" shadow="0">
      <root>
        <mxCell id="0" />
        <mxCell id="1" parent="0" />
        <mxCell id="13" value="" style="verticalLabelPosition=bottom;verticalAlign=top;strokeWidth=1;shape=mxgraph.mockup.graphics.iconGrid;strokeColor=#CCCCCC;gridSize=1,1;sketch=1;shadow=1;" parent="1" vertex="1">
          <mxGeometry x="128" y="170" width="570" height="200" as="geometry" />
        </mxCell>
        <mxCell id="2" value="Agami Blogs" style="text;spacingTop=-5;fontSize=18;fontStyle=0;sketch=1;shadow=1;" parent="1" vertex="1">
          <mxGeometry x="70" y="30" width="230" height="20" as="geometry" />
        </mxCell>
        <mxCell id="3" value="" style="line;strokeWidth=1;sketch=1;shadow=1;" parent="1" vertex="1">
          <mxGeometry x="20" y="60" width="780" height="10" as="geometry" />
        </mxCell>
        <mxCell id="11" value="RSS" style="text;spacingTop=-5;sketch=1;shadow=1;" parent="1" vertex="1">
          <mxGeometry x="740" y="70.00000000000013" width="30" height="20" as="geometry" />
        </mxCell>
        <mxCell id="20" value="" style="verticalLabelPosition=bottom;verticalAlign=top;strokeWidth=1;shape=mxgraph.mockup.graphics.iconGrid;strokeColor=#CCCCCC;gridSize=1,1;sketch=1;shadow=1;" parent="1" vertex="1">
          <mxGeometry x="20" y="15" width="40" height="40" as="geometry" />
        </mxCell>
        <mxCell id="21" value="Blog &#xa;Logo" style="text;spacingTop=-5;align=center;sketch=1;shadow=1;" parent="1" vertex="1">
          <mxGeometry x="20" y="20" width="40" height="40" as="geometry" />
        </mxCell>
        <mxCell id="Ugrp3_h8G9npWypkSd74-62" value="Read More" style="rounded=1;whiteSpace=wrap;html=1;fillColor=#dae8fc;strokeColor=#6c8ebf;sketch=1;shadow=1;" vertex="1" parent="1">
          <mxGeometry x="148" y="300" width="110" height="40" as="geometry" />
        </mxCell>
        <mxCell id="Ugrp3_h8G9npWypkSd74-63" value="Edit" style="rounded=1;whiteSpace=wrap;html=1;fillColor=#d5e8d4;strokeColor=#82b366;sketch=1;shadow=1;" vertex="1" parent="1">
          <mxGeometry x="358" y="300" width="110" height="40" as="geometry" />
        </mxCell>
        <mxCell id="Ugrp3_h8G9npWypkSd74-64" value="Delete" style="rounded=1;whiteSpace=wrap;html=1;fillColor=#f8cecc;strokeColor=#b85450;sketch=1;shadow=1;" vertex="1" parent="1">
          <mxGeometry x="548" y="300" width="110" height="40" as="geometry" />
        </mxCell>
        <mxCell id="Ugrp3_h8G9npWypkSd74-66" value="New Article" style="rounded=1;whiteSpace=wrap;html=1;fillColor=#dae8fc;strokeColor=#6c8ebf;sketch=1;shadow=1;" vertex="1" parent="1">
          <mxGeometry x="38" y="90" width="110" height="40" as="geometry" />
        </mxCell>
        <mxCell id="Ugrp3_h8G9npWypkSd74-74" value="" style="verticalLabelPosition=bottom;verticalAlign=top;strokeWidth=1;shape=mxgraph.mockup.graphics.iconGrid;strokeColor=#CCCCCC;gridSize=1,1;sketch=1;shadow=1;" vertex="1" parent="1">
          <mxGeometry x="128" y="440" width="570" height="200" as="geometry" />
        </mxCell>
        <mxCell id="Ugrp3_h8G9npWypkSd74-77" value="Read More" style="rounded=1;whiteSpace=wrap;html=1;fillColor=#dae8fc;strokeColor=#6c8ebf;sketch=1;shadow=1;" vertex="1" parent="1">
          <mxGeometry x="148" y="570" width="110" height="40" as="geometry" />
        </mxCell>
        <mxCell id="Ugrp3_h8G9npWypkSd74-78" value="Edit" style="rounded=1;whiteSpace=wrap;html=1;fillColor=#d5e8d4;strokeColor=#82b366;sketch=1;shadow=1;" vertex="1" parent="1">
          <mxGeometry x="358" y="570" width="110" height="40" as="geometry" />
        </mxCell>
        <mxCell id="Ugrp3_h8G9npWypkSd74-79" value="Delete" style="rounded=1;whiteSpace=wrap;html=1;fillColor=#f8cecc;strokeColor=#b85450;sketch=1;shadow=1;" vertex="1" parent="1">
          <mxGeometry x="548" y="570" width="110" height="40" as="geometry" />
        </mxCell>
        <mxCell id="Ugrp3_h8G9npWypkSd74-80" value="" style="verticalLabelPosition=bottom;verticalAlign=top;strokeWidth=1;shape=mxgraph.mockup.graphics.iconGrid;strokeColor=#CCCCCC;gridSize=1,1;sketch=1;shadow=1;" vertex="1" parent="1">
          <mxGeometry x="123" y="700" width="570" height="200" as="geometry" />
        </mxCell>
        <mxCell id="Ugrp3_h8G9npWypkSd74-83" value="Read More" style="rounded=1;whiteSpace=wrap;html=1;fillColor=#dae8fc;strokeColor=#6c8ebf;sketch=1;shadow=1;" vertex="1" parent="1">
          <mxGeometry x="143" y="830" width="110" height="40" as="geometry" />
        </mxCell>
        <mxCell id="Ugrp3_h8G9npWypkSd74-84" value="Edit" style="rounded=1;whiteSpace=wrap;html=1;fillColor=#d5e8d4;strokeColor=#82b366;sketch=1;shadow=1;" vertex="1" parent="1">
          <mxGeometry x="353" y="830" width="110" height="40" as="geometry" />
        </mxCell>
        <mxCell id="Ugrp3_h8G9npWypkSd74-85" value="Delete" style="rounded=1;whiteSpace=wrap;html=1;fillColor=#f8cecc;strokeColor=#b85450;sketch=1;shadow=1;" vertex="1" parent="1">
          <mxGeometry x="543" y="830" width="110" height="40" as="geometry" />
        </mxCell>
        <mxCell id="Ugrp3_h8G9npWypkSd74-92" value="&lt;h1&gt;Heading&lt;/h1&gt;&lt;p&gt;Lorem ipsum dolor sit amet, consectetur adipisicing elit, sed do eiusmod tempor incididunt ut labore et dolore magna aliqua.&lt;/p&gt;" style="text;html=1;strokeColor=none;fillColor=none;spacing=5;spacingTop=-20;whiteSpace=wrap;overflow=hidden;rounded=0;shadow=1;sketch=1;" vertex="1" parent="1">
          <mxGeometry x="147" y="460" width="532" height="100" as="geometry" />
        </mxCell>
        <mxCell id="Ugrp3_h8G9npWypkSd74-93" value="&lt;h1&gt;Heading&lt;/h1&gt;&lt;p&gt;Lorem ipsum dolor sit amet, consectetur adipisicing elit, sed do eiusmod tempor incididunt ut labore et dolore magna aliqua.&lt;/p&gt;" style="text;html=1;strokeColor=none;fillColor=none;spacing=5;spacingTop=-20;whiteSpace=wrap;overflow=hidden;rounded=0;shadow=1;sketch=1;" vertex="1" parent="1">
          <mxGeometry x="147" y="190" width="532" height="100" as="geometry" />
        </mxCell>
        <mxCell id="Ugrp3_h8G9npWypkSd74-94" value="&lt;h1&gt;Heading&lt;/h1&gt;&lt;p&gt;Lorem ipsum dolor sit amet, consectetur adipisicing elit, sed do eiusmod tempor incididunt ut labore et dolore magna aliqua.&lt;/p&gt;" style="text;html=1;strokeColor=none;fillColor=none;spacing=5;spacingTop=-20;whiteSpace=wrap;overflow=hidden;rounded=0;shadow=1;sketch=1;" vertex="1" parent="1">
          <mxGeometry x="147" y="710" width="532" height="100" as="geometry" />
        </mxCell>
        <mxCell id="Ugrp3_h8G9npWypkSd74-95" value="" style="endArrow=none;html=1;rounded=0;" edge="1" parent="1">
          <mxGeometry width="50" height="50" relative="1" as="geometry">
            <mxPoint x="38" y="1120" as="sourcePoint" />
            <mxPoint x="760" y="1120" as="targetPoint" />
          </mxGeometry>
        </mxCell>
        <mxCell id="Ugrp3_h8G9npWypkSd74-97" value="Â©abhishek kumar" style="text;html=1;strokeColor=none;fillColor=none;align=center;verticalAlign=middle;whiteSpace=wrap;rounded=0;shadow=1;sketch=1;fontStyle=1" vertex="1" parent="1">
          <mxGeometry x="355" y="1120" width="117" height="30" as="geometry" />
        </mxCell>
      </root>
    </mxGraphModel>
  </diagram>
</mxfile>
